<svg width="35" height="39" viewBox="0 0 35 39" fill="none" xmlns="http://www.w3.org/2000/svg">
<path d="M9.5 5.5H7.90039C5.66018 5.5 4.53924 5.5 3.68359 5.93597C2.93095 6.31947 2.31947 6.93095 1.93597 7.68359C1.5 8.53924 1.5 9.66018 1.5 11.9004V13.5M9.5 5.5H25.5M9.5 5.5V1.5M25.5 5.5H27.1004C29.3406 5.5 30.4591 5.5 31.3148 5.93597C32.0674 6.31947 32.681 6.93095 33.0645 7.68359C33.5 8.5384 33.5 9.65799 33.5 11.8938V13.5M25.5 5.5V1.5M1.5 13.5V31.1004C1.5 33.3406 1.5 34.4601 1.93597 35.3158C2.31947 36.0684 2.93095 36.681 3.68359 37.0645C4.5384 37.5 5.65799 37.5 7.89382 37.5H27.1062C29.342 37.5 30.46 37.5 31.3148 37.0645C32.0674 36.681 32.681 36.0684 33.0645 35.3158C33.5 34.461 33.5 33.343 33.5 31.1072V13.5M1.5 13.5H33.5M25.5 29.5H25.504L25.5039 29.504L25.5 29.5039V29.5ZM17.5 29.5H17.504L17.5039 29.504L17.5 29.5039V29.5ZM9.5 29.5H9.504L9.50391 29.504L9.5 29.5039V29.5ZM25.5039 21.5V21.504L25.5 21.5039V21.5H25.5039ZM17.5 21.5H17.504L17.5039 21.504L17.5 21.5039V21.5ZM9.5 21.5H9.504L9.50391 21.504L9.5 21.5039V21.5Z" stroke="#8C8C8C" stroke-width="1.5" stroke-linecap="round" stroke-linejoin="round"/>
</svg>
