<svg width="35" height="36" viewBox="0 0 35 36" fill="none" xmlns="http://www.w3.org/2000/svg">
<path d="M33.5 28.1849V17.089C33.5 16.0203 33.4991 15.4857 33.3691 14.9884C33.254 14.5477 33.065 14.1307 32.8091 13.7539C32.5205 13.3286 32.1191 12.9759 31.3148 12.2722L21.7148 3.87222C20.2216 2.56565 19.475 1.9127 18.6348 1.66421C17.8944 1.44526 17.1052 1.44526 16.3648 1.66421C15.5252 1.91251 14.7797 2.56485 13.2887 3.86944L3.68555 12.2722C2.88128 12.976 2.48008 13.3286 2.19141 13.7539C1.93558 14.1307 1.7451 14.5477 1.62994 14.9884C1.5 15.4857 1.5 16.0203 1.5 17.089V28.1849C1.5 30.0487 1.5 30.9802 1.80448 31.7153C2.21046 32.6954 2.98864 33.475 3.96875 33.881C4.70383 34.1855 5.63572 34.1855 7.49948 34.1855C9.36325 34.1855 10.2962 34.1855 11.0312 33.881C12.0114 33.475 12.7893 32.6956 13.1953 31.7155C13.4998 30.9804 13.5 30.0485 13.5 28.1847V26.1847C13.5 23.9756 15.2909 22.1847 17.5 22.1847C19.7091 22.1847 21.5 23.9756 21.5 26.1847V28.1847C21.5 30.0485 21.5 30.9804 21.8045 31.7155C22.2105 32.6956 22.9886 33.475 23.9688 33.881C24.7038 34.1855 25.6357 34.1855 27.4995 34.1855C29.3632 34.1855 30.2962 34.1855 31.0312 33.881C32.0114 33.475 32.7893 32.6954 33.1953 31.7153C33.4998 30.9802 33.5 30.0487 33.5 28.1849Z" stroke="black" stroke-width="1.5" stroke-linecap="round" stroke-linejoin="round"/>
</svg>
