<svg width="24" height="24" viewBox="0 0 24 24" fill="none" xmlns="http://www.w3.org/2000/svg">
  <path d="M3 6.5C3 5.11929 4.11929 4 5.5 4H18.5C19.8807 4 21 5.11929 21 6.5C21 7.88071 19.8807 9 18.5 9H5.5C4.11929 9 3 7.88071 3 6.5Z" stroke="currentColor" strokeWidth="2"/>
  <path d="M3 17.5C3 16.1193 4.11929 15 5.5 15H18.5C19.8807 15 21 16.1193 21 17.5C21 18.8807 19.8807 20 18.5 20H5.5C4.11929 20 3 18.8807 3 17.5Z" stroke="currentColor" strokeWidth="2"/>
  <circle cx="7.5" cy="6.5" r="1.5" fill="currentColor"/>
  <circle cx="16.5" cy="17.5" r="1.5" fill="currentColor"/>
</svg> 