<svg width="24" height="24" viewBox="0 0 24 24" fill="none" xmlns="http://www.w3.org/2000/svg">
  <path d="M16 4C17.1046 4 18 4.89543 18 6C18 7.10457 17.1046 8 16 8C14.8954 8 14 7.10457 14 6C14 4.89543 14.8954 4 16 4Z" fill="currentColor"/>
  <path d="M8 8C6.89543 8 6 8.89543 6 10C6 11.1046 6.89543 12 8 12C9.10457 12 10 11.1046 10 10C10 8.89543 9.10457 8 8 8Z" fill="currentColor"/>
  <path d="M16 8C16 8 13 17 8 12" stroke="currentColor" strokeWidth="2" strokeLinecap="round"/>
  <path d="M8 12C8 12 7 19 12 19" stroke="currentColor" strokeWidth="2" strokeLinecap="round"/>
  <path d="M15 15C16.6569 15 18 16.3431 18 18C18 19.6569 16.6569 21 15 21" stroke="currentColor" strokeWidth="2" strokeLinecap="round"/>
</svg> 