<svg width="24" height="24" viewBox="0 0 24 24" fill="none" xmlns="http://www.w3.org/2000/svg">
  <path d="M12 2C13.1046 2 14 2.89543 14 4C14 5.10457 13.1046 6 12 6C10.8954 6 10 5.10457 10 4C10 2.89543 10.8954 2 12 2Z" fill="currentColor"/>
  <path d="M18 14C18 13.4477 17.5523 13 17 13H7C6.44772 13 6 13.4477 6 14V14.5C6 14.7761 6.22386 15 6.5 15H17.5C17.7761 15 18 14.7761 18 14.5V14Z" fill="currentColor"/>
  <path d="M16 8H8C7.44772 8 7 8.44772 7 9V11C7 11.5523 7.44772 12 8 12H16C16.5523 12 17 11.5523 17 11V9C17 8.44772 16.5523 8 16 8Z" fill="currentColor"/>
  <path d="M20 16H4C3.44772 16 3 16.4477 3 17V21C3 21.5523 3.44772 22 4 22H20C20.5523 22 21 21.5523 21 21V17C21 16.4477 20.5523 16 20 16Z" fill="currentColor"/>
</svg> 