<svg width="24" height="24" viewBox="0 0 24 24" fill="none" xmlns="http://www.w3.org/2000/svg">
  <path d="M12 4C7.58172 4 4 7.58172 4 12C4 16.4183 7.58172 20 12 20C16.4183 20 20 16.4183 20 12C20 7.58172 16.4183 4 12 4Z" stroke="currentColor" strokeWidth="2"/>
  <path d="M9 13C9.82843 13 10.5 12.3284 10.5 11.5C10.5 10.6716 9.82843 10 9 10C8.17157 10 7.5 10.6716 7.5 11.5C7.5 12.3284 8.17157 13 9 13Z" fill="currentColor"/>
  <path d="M15 13C15.8284 13 16.5 12.3284 16.5 11.5C16.5 10.6716 15.8284 10 15 10C14.1716 10 13.5 10.6716 13.5 11.5C13.5 12.3284 14.1716 13 15 13Z" fill="currentColor"/>
  <path d="M7 15.5C7 15.5 9 17.5 12 17.5C15 17.5 17 15.5 17 15.5" stroke="currentColor" strokeWidth="2" strokeLinecap="round"/>
</svg>