<svg width="24" height="24" viewBox="0 0 24 24" fill="none" xmlns="http://www.w3.org/2000/svg">
  <path d="M17 3C17.5523 3 18 3.44772 18 4C18 4.55228 17.5523 5 17 5C16.4477 5 16 4.55228 16 4C16 3.44772 16.4477 3 17 3Z" fill="currentColor"/>
  <path d="M7 8C7.55228 8 8 8.44772 8 9C8 9.55228 7.55228 10 7 10C6.44772 10 6 9.55228 6 9C6 8.44772 6.44772 8 7 8Z" fill="currentColor"/>
  <path d="M12 14C11.4477 14 11 14.4477 11 15C11 15.5523 11.4477 16 12 16C12.5523 16 13 15.5523 13 15C13 14.4477 12.5523 14 12 14Z" fill="currentColor"/>
  <path d="M4 19C3.44772 19 3 19.4477 3 20C3 20.5523 3.44772 21 4 21C4.55228 21 5 20.5523 5 20C5 19.4477 4.55228 19 4 19Z" fill="currentColor"/>
  <path d="M20 19C19.4477 19 19 19.4477 19 20C19 20.5523 19.4477 21 20 21C20.5523 21 21 20.5523 21 20C21 19.4477 20.5523 19 20 19Z" fill="currentColor"/>
  <path d="M17 5L7 9" stroke="currentColor" strokeWidth="2" strokeLinecap="round"/>
  <path d="M7 10L12 15" stroke="currentColor" strokeWidth="2" strokeLinecap="round"/>
  <path d="M12 16L4 20" stroke="currentColor" strokeWidth="2" strokeLinecap="round"/>
  <path d="M12 16L20 20" stroke="currentColor" strokeWidth="2" strokeLinecap="round"/>
</svg> 