<svg width="24" height="24" viewBox="0 0 24 24" fill="none" xmlns="http://www.w3.org/2000/svg">
  <path d="M12 2C13.1046 2 14 2.89543 14 4C14 5.10457 13.1046 6 12 6C10.8954 6 10 5.10457 10 4C10 2.89543 10.8954 2 12 2Z" fill="currentColor"/>
  <path d="M15 8H9C8.44772 8 8 8.44772 8 9V11C8 11.5523 8.44772 12 9 12H15C15.5523 12 16 11.5523 16 11V9C16 8.44772 15.5523 8 15 8Z" fill="currentColor"/>
  <path d="M9 14C8.44772 14 8 14.4477 8 15V20C8 20.5523 8.44772 21 9 21H10C10.5523 21 11 20.5523 11 20V15C11 14.4477 10.5523 14 10 14H9Z" fill="currentColor"/>
  <path d="M14 14C13.4477 14 13 14.4477 13 15V20C13 20.5523 13.4477 21 14 21H15C15.5523 21 16 20.5523 16 20V15C16 14.4477 15.5523 14 15 14H14Z" fill="currentColor"/>
</svg> 